<svg xmlns="http://www.w3.org/2000/svg" width="16" height="16" fill="none"><rect width="16" height="16" fill="#F3C653" rx="2"/><path fill="#000" d="M13.594 14h-2.235V6c0-.156-.03-.302-.093-.438a1.035 1.035 0 0 0-.243-.351 1.035 1.035 0 0 0-.351-.242 1.111 1.111 0 0 0-.438-.086 1.111 1.111 0 0 0-1.03.68A1.111 1.111 0 0 0 9.116 6v8H6.875V6c0-.156-.029-.302-.086-.438a1.036 1.036 0 0 0-.242-.351 1.036 1.036 0 0 0-.352-.242 1.111 1.111 0 0 0-.437-.086 1.111 1.111 0 0 0-1.031.68A1.111 1.111 0 0 0 4.64 6v8H2.398V6a3.314 3.314 0 0 1 .977-2.375 3.337 3.337 0 0 1 1.07-.719 3.285 3.285 0 0 1 1.313-.265c.416 0 .818.075 1.203.226.385.146.732.36 1.039.64a3.23 3.23 0 0 1 1.031-.64 3.269 3.269 0 0 1 1.203-.226c.464 0 .899.088 1.305.265.412.172.768.412 1.07.719.308.302.547.659.72 1.07.176.407.265.841.265 1.305v8Z"/></svg>